<svg width="58" height="58" viewBox="0 0 58 58" fill="none" xmlns="http://www.w3.org/2000/svg">
<path d="M29.0001 29C26.3417 29 24.0661 28.0534 22.173 26.1604C20.2799 24.2673 19.3334 21.9916 19.3334 19.3333C19.3334 16.675 20.2799 14.3993 22.173 12.5062C24.0661 10.6132 26.3417 9.66663 29.0001 9.66663C31.6584 9.66663 33.9341 10.6132 35.8272 12.5062C37.7202 14.3993 38.6667 16.675 38.6667 19.3333C38.6667 21.9916 37.7202 24.2673 35.8272 26.1604C33.9341 28.0534 31.6584 29 29.0001 29ZM9.66675 48.3333V41.5666C9.66675 40.1972 10.0192 38.9385 10.724 37.7906C11.4289 36.6427 12.3654 35.7666 13.5334 35.1625C16.0306 33.9138 18.5681 32.9774 21.1459 32.3531C23.7237 31.7288 26.3417 31.4166 29.0001 31.4166C31.6584 31.4166 34.2765 31.7288 36.8542 32.3531C39.432 32.9774 41.9695 33.9138 44.4667 35.1625C45.6348 35.7666 46.5713 36.6427 47.2761 37.7906C47.981 38.9385 48.3334 40.1972 48.3334 41.5666V48.3333H9.66675ZM14.5001 43.5H43.5001V41.5666C43.5001 41.1236 43.3893 40.7208 43.1678 40.3583C42.9463 39.9958 42.6542 39.7138 42.2917 39.5125C40.1167 38.425 37.9216 37.6093 35.7063 37.0656C33.4911 36.5218 31.2556 36.25 29.0001 36.25C26.7445 36.25 24.5091 36.5218 22.2938 37.0656C20.0786 37.6093 17.8834 38.425 15.7084 39.5125C15.3459 39.7138 15.0539 39.9958 14.8324 40.3583C14.6108 40.7208 14.5001 41.1236 14.5001 41.5666V43.5ZM29.0001 24.1666C30.3292 24.1666 31.4671 23.6934 32.4136 22.7468C33.3601 21.8003 33.8334 20.6625 33.8334 19.3333C33.8334 18.0041 33.3601 16.8663 32.4136 15.9198C31.4671 14.9732 30.3292 14.5 29.0001 14.5C27.6709 14.5 26.5331 14.9732 25.5865 15.9198C24.64 16.8663 24.1667 18.0041 24.1667 19.3333C24.1667 20.6625 24.64 21.8003 25.5865 22.7468C26.5331 23.6934 27.6709 24.1666 29.0001 24.1666Z" fill="#1D1B20"/>
</svg>
